<svg xmlns="http://www.w3.org/2000/svg" x="0px" y="0px" viewBox="0 0 1100 436.25" >
<path d="M1000,210.76c0-6.63-0.48-13.15-1.4-19.53c-2.94-21.27-10.78-40.72-22.38-57.3
	c-24.5-35.72-65.61-59.15-112.2-59.15c-75.1,0-135.97,60.88-135.97,135.97c0,17.22,3.21,33.69,9.05,48.85
	c-0.37,0.06-0.74,0.12-1.12,0.17c-0.28,0.04-0.56,0.07-0.84,0.11c-0.64,0.07-1.28,0.13-1.93,0.18c-0.27,0.02-0.53,0.05-0.8,0.06
	c-0.9,0.05-1.81,0.08-2.72,0.08c0,0,0,0,0,0c-0.82,0-1.63-0.02-2.44-0.06c-0.28-0.01-0.55-0.04-0.83-0.06
	c-0.53-0.04-1.06-0.07-1.58-0.12c-0.35-0.04-0.69-0.09-1.04-0.13c-0.44-0.05-0.89-0.1-1.33-0.17c-0.38-0.06-0.76-0.14-1.14-0.2
	c-0.4-0.07-0.8-0.13-1.2-0.21c-0.41-0.08-0.81-0.18-1.21-0.28c-0.36-0.08-0.72-0.16-1.08-0.25c-0.43-0.11-0.84-0.24-1.26-0.36
	c-0.33-0.09-0.66-0.18-0.99-0.28c-0.44-0.14-0.88-0.29-1.32-0.44c-0.29-0.1-0.59-0.19-0.88-0.3c-0.46-0.17-0.91-0.35-1.36-0.53
	c-0.26-0.1-0.53-0.2-0.79-0.31c-0.48-0.2-0.94-0.42-1.41-0.63c-0.23-0.11-0.46-0.2-0.69-0.31c-0.49-0.24-0.97-0.49-1.45-0.74
	c-0.2-0.1-0.4-0.2-0.59-0.3c-0.5-0.27-0.98-0.55-1.47-0.84c-0.17-0.1-0.35-0.19-0.51-0.3c-0.51-0.31-1.01-0.63-1.51-0.96
	c-0.14-0.09-0.28-0.17-0.41-0.27c-0.52-0.35-1.02-0.71-1.53-1.08c-0.11-0.08-0.22-0.15-0.33-0.23c-0.52-0.39-1.03-0.79-1.54-1.2
	c-0.08-0.07-0.17-0.13-0.25-0.19c-0.52-0.43-1.03-0.87-1.54-1.32c-0.06-0.05-0.12-0.1-0.18-0.16c-0.52-0.47-1.03-0.95-1.52-1.44
	c-0.04-0.04-0.08-0.08-0.12-0.12c-0.51-0.51-1.01-1.03-1.5-1.56c-0.02-0.02-0.04-0.05-0.07-0.07c-0.5-0.55-0.99-1.11-1.47-1.68
	c-0.01-0.01-0.01-0.02-0.02-0.02c-6.79-8.14-10.9-18.59-11.01-29.99c0-0.15-0.01-0.31-0.01-0.46v-47.53l28.15-0.06l19.44-87.93
	H682.1V0l-87.93,31.58l0,62.79c-20.52-12.43-44.59-19.58-70.33-19.58c-40.8,0-77.39,17.97-102.31,46.42
	c-24.92-28.45-61.52-46.42-102.31-46.42c-58.27,0-107.97,36.65-127.32,88.16l-0.07,0l-0.12,0.23h-0.01
	c-19.32,35.95-26.43,47.59-52.71,47.59c-26.28,0-47.59-21.31-47.59-47.59c0-0.15,0.01-0.3,0.01-0.45H3.48c0,0.3-0.01,0.6-0.01,0.91
	c0,68.21,50.22,124.68,115.71,134.47l-0.69,1.28c0,0-8.56,16.05-12.08,22.68c-7.98,15.08-23.84,25.36-42.09,25.36
	c-8.15,0-15.83-2.05-22.54-5.67L0,419.86c19.26,10.45,41.32,16.39,64.77,16.39c75.1,0,108.78-47.14,122.38-72.52
	c0.12-0.23,25.05-46.58,32.42-60.47c24.83,26.74,60.28,43.47,99.65,43.47c40.8,0,77.39-17.97,102.31-46.42
	c24.92,28.45,61.52,46.42,102.31,46.42c40.71,0,77.24-17.9,102.16-46.25c24.94,29.68,62.34,48.55,104.14,48.55
	c1.11,0,2.22-0.02,3.32-0.04c0.37-0.01,0.75-0.03,1.12-0.04c0.73-0.02,1.45-0.05,2.18-0.08c0.45-0.02,0.9-0.05,1.36-0.08
	c0.64-0.04,1.28-0.08,1.91-0.12c0.49-0.03,0.98-0.08,1.47-0.12c0.59-0.05,1.18-0.1,1.77-0.16c0.52-0.05,1.03-0.1,1.54-0.16
	c0.56-0.06,1.11-0.12,1.66-0.19c0.54-0.06,1.07-0.13,1.6-0.2c0.52-0.07,1.03-0.14,1.55-0.22c0.56-0.08,1.12-0.16,1.68-0.25
	c0.45-0.07,0.9-0.15,1.36-0.22c0.62-0.1,1.23-0.2,1.84-0.31c0.19-0.03,0.37-0.07,0.55-0.11c1.75-0.32,3.49-0.68,5.22-1.07
	c0.06-0.01,0.11-0.02,0.17-0.04c0.77-0.18,1.54-0.36,2.3-0.55c0.25-0.06,0.5-0.12,0.74-0.18c0.73-0.19,1.46-0.38,2.19-0.58
	c0.27-0.07,0.54-0.14,0.81-0.22c0.73-0.2,1.45-0.41,2.17-0.62c0.26-0.08,0.52-0.15,0.78-0.23c0.73-0.22,1.46-0.45,2.19-0.68
	c0.23-0.07,0.47-0.15,0.7-0.23c0.75-0.25,1.5-0.5,2.25-0.75c0.17-0.06,0.34-0.12,0.52-0.18c0.81-0.28,1.61-0.57,2.41-0.87
	c0,0,0,0,0.01,0c10.03-3.73,17.69-6.61,23.53-9.26c18.83,9.86,40.25,15.44,62.98,15.44c16.61,0,32.52-2.98,47.23-8.43v10.74
	l88.65-0.72l-0.01-132.56C999.96,214.1,1000,212.44,1000,210.76z M318.76,257.9c-26.28,0-47.59-21.31-47.59-47.59
	c0-26.28,21.31-47.59,47.59-47.59c26.28,0,47.59,21.31,47.59,47.59C366.35,236.59,345.04,257.9,318.76,257.9z M523.39,257.9
	c-26.28,0-47.59-21.31-47.59-47.59c0-26.28,21.31-47.59,47.59-47.59s47.59,21.31,47.59,47.59
	C570.98,236.59,549.67,257.9,523.39,257.9z M863.57,257.9c-26.28,0-47.59-21.31-47.59-47.59s21.31-47.59,47.59-47.59
	c22.89,0,42,16.16,46.55,37.7c0.04,0.2,0.08,0.4,0.12,0.6c0.1,0.5,0.19,1,0.27,1.5c0.05,0.29,0.1,0.59,0.14,0.89
	c0.33,2.25,0.5,4.56,0.5,6.9C911.16,236.59,889.86,257.9,863.57,257.9z"/>
</svg>
